<svg width="24" height="25" viewBox="0 0 24 25" fill="none" xmlns="http://www.w3.org/2000/svg">
<path d="M11.984 5.84967C8.58402 5.84967 5.84163 8.59837 5.84163 12.0061C5.84163 15.4138 8.58402 18.1625 11.984 18.1625C15.3839 18.1625 18.1263 15.4138 18.1263 12.0061C18.1263 8.59837 15.3839 5.84967 11.984 5.84967ZM11.984 16.0086C9.78683 16.0086 7.99064 14.2136 7.99064 12.0061C7.99064 9.79857 9.78148 8.00362 11.984 8.00362C14.1864 8.00362 15.9773 9.79857 15.9773 12.0061C15.9773 14.2136 14.1811 16.0086 11.984 16.0086ZM19.8102 5.59785C19.8102 6.3962 19.1687 7.03381 18.3775 7.03381C17.581 7.03381 16.9449 6.39084 16.9449 5.59785C16.9449 4.80485 17.5864 4.16188 18.3775 4.16188C19.1687 4.16188 19.8102 4.80485 19.8102 5.59785ZM23.8784 7.05524C23.7875 5.13169 23.3491 3.42783 21.9432 2.02401C20.5426 0.620197 18.8426 0.180835 16.9235 0.0843897C14.9455 -0.0281298 9.01703 -0.0281298 7.03909 0.0843897C5.12529 0.175477 3.42532 0.614839 2.01938 2.01865C0.613431 3.42247 0.180421 5.12633 0.0841964 7.04988C-0.0280655 9.03237 -0.0280655 14.9745 0.0841964 16.957C0.175075 18.8805 0.613431 20.5844 2.01938 21.9882C3.42532 23.392 5.11994 23.8314 7.03909 23.9278C9.01703 24.0403 14.9455 24.0403 16.9235 23.9278C18.8426 23.8367 20.5426 23.3974 21.9432 21.9882C23.3438 20.5844 23.7821 18.8805 23.8784 16.957C23.9906 14.9745 23.9906 9.03773 23.8784 7.05524ZM21.3231 19.0841C20.9061 20.1343 20.0989 20.9434 19.0458 21.3666C17.4687 21.9935 13.7267 21.8489 11.984 21.8489C10.2412 21.8489 6.49381 21.9882 4.92215 21.3666C3.87437 20.9487 3.06715 20.1397 2.64484 19.0841C2.01938 17.5035 2.16371 13.7528 2.16371 12.0061C2.16371 10.2594 2.02472 6.50336 2.64484 4.92809C3.06181 3.8779 3.86902 3.06884 4.92215 2.64555C6.49916 2.01865 10.2412 2.16332 11.984 2.16332C13.7267 2.16332 17.4741 2.02401 19.0458 2.64555C20.0935 3.06348 20.9008 3.87255 21.3231 4.92809C21.9485 6.50872 21.8042 10.2594 21.8042 12.0061C21.8042 13.7528 21.9485 17.5088 21.3231 19.0841Z" fill="#472823"/>
</svg>
