<svg width="27" height="17" viewBox="0 0 27 17" fill="none" xmlns="http://www.w3.org/2000/svg">
<path d="M26.3435 1.08989C26.5287 0.464605 26.3435 0.00439453 25.4527 0.00439453H22.5051C21.7544 0.00439453 21.4091 0.399575 21.2239 0.839776C21.2239 0.839776 19.7226 4.49645 17.6007 6.86753C16.9151 7.55285 16.5998 7.77295 16.2245 7.77295C16.0393 7.77295 15.754 7.55285 15.754 6.92756V1.08989C15.754 0.339548 15.5439 0.00439453 14.9233 0.00439453H10.2892C9.81876 0.00439453 9.53851 0.354555 9.53851 0.679703C9.53851 1.39003 10.5995 1.5551 10.7096 3.55602V7.898C10.7096 8.84844 10.5394 9.02352 10.1641 9.02352C9.16317 9.02352 6.731 5.35184 5.28972 1.14992C4.99946 0.334546 4.7142 0.00439453 3.95853 0.00439453H1.0109C0.170152 0.00439453 1.90905e-08 0.399575 1.90905e-08 0.839776C1.90905e-08 1.62013 1.00089 5.49691 4.65915 10.6192C7.09633 14.1158 10.5294 16.0117 13.6522 16.0117C15.5288 16.0117 15.7591 15.5915 15.7591 14.8662C15.7591 11.5247 15.5889 11.2095 16.5297 11.2095C16.9651 11.2095 17.7158 11.4296 19.4674 13.1154C21.4691 15.1163 21.7994 16.0117 22.9204 16.0117H25.8681C26.7088 16.0117 27.1342 15.5915 26.889 14.7611C26.3285 13.0153 22.5401 9.4237 22.3699 9.18359C21.9346 8.62333 22.0597 8.37322 22.3699 7.87299C22.375 7.86799 25.9732 2.80568 26.3435 1.08989Z" fill="#472823"/>
</svg>
